<?xml version="1.0" encoding="UTF-8"?>
<svg version="1.1" xmlns="http://www.w3.org/2000/svg" width="512" height="512">
<path d="M0 0 C2.73686767 2.60401002 5.38141747 5.27805237 8 8 C8.79277344 8.79148438 9.58554687 9.58296875 10.40234375 10.3984375 C24.55427304 24.57164788 35.80304103 40.21011086 45 58 C45.37753418 58.72380859 45.75506836 59.44761719 46.14404297 60.19335938 C69.85199628 106.19772328 72.84497193 160.39234131 57.75244141 209.67578125 C46.57866145 244.19050715 26.92982898 272.4426549 1.33984375 297.66796875 C-1.6889682 300.66516992 -4.5408692 303.7615806 -7.296875 307.01171875 C-14.92117955 315.91256971 -23.12050303 324.35184396 -31.14453125 332.890625 C-33.71167355 335.62353617 -36.27138435 338.36309437 -38.82421875 341.109375 C-39.44192139 341.77348389 -40.05962402 342.43759277 -40.69604492 343.12182617 C-41.85480861 344.36841063 -43.01260692 345.61589355 -44.16918945 346.86450195 C-46.96116565 349.86620406 -49.79389922 352.81065291 -52.703125 355.69921875 C-54.99290591 357.97348538 -57.18026733 360.27086965 -59.25 362.75 C-62.18279622 366.1583848 -65.30072901 369.34399164 -68.5 372.5 C-71.61580242 375.57389519 -74.65877297 378.66702214 -77.5 382 C-80.7823339 385.85043015 -84.35254849 389.38145579 -87.95092773 392.93139648 C-91.20000607 396.15366448 -94.22443863 399.49340645 -97.19140625 402.97265625 C-100.17238449 406.31418478 -103.39815768 409.408143 -106.58984375 412.546875 C-108.71065019 414.70549161 -110.6420224 416.915127 -112.5625 419.25 C-117.62354166 425.16254393 -123.6431008 429.40098571 -131.4453125 430.2734375 C-140.13355996 430.60272968 -146.04403388 428.46295533 -152.6015625 422.72265625 C-156.98721918 418.42312274 -161.03690263 413.86201445 -165.0234375 409.1953125 C-167.57961739 406.35623524 -170.28269828 403.68398614 -173 401 C-176.89896095 397.14878387 -180.60824302 393.23578266 -184.16015625 389.05859375 C-186.95766867 385.92846838 -189.96624506 383.01314342 -192.95336914 380.06616211 C-196.17998653 376.86614229 -199.17930461 373.54927728 -202.125 370.09375 C-204.93600311 366.95479653 -207.95267797 364.02649319 -210.95092773 361.06860352 C-214.20000607 357.84633552 -217.22443863 354.50659355 -220.19140625 351.02734375 C-223.1740589 347.6839383 -226.40356692 344.5892363 -229.58984375 341.44140625 C-232.26854532 338.72797273 -234.74608118 335.89222977 -237.22265625 332.99609375 C-239.94733093 329.93607449 -242.88878072 327.10293156 -245.8046875 324.2265625 C-248.44006743 321.55366826 -250.87766489 318.74631697 -253.3203125 315.8984375 C-254.98204576 314.02029247 -256.71125525 312.25694484 -258.5 310.5 C-260.79326036 308.24202057 -262.96428028 305.94003496 -265.0625 303.5 C-267.93268 300.16543132 -270.90845779 296.949052 -273.92602539 293.7487793 C-286.0183104 280.91195526 -296.61115741 267.97175606 -306 253 C-306.61488281 252.02836914 -306.61488281 252.02836914 -307.2421875 251.03710938 C-333.94960592 208.24250435 -340.84032003 153.45251313 -330.16064453 104.64599609 C-321.62086071 68.21402978 -303.96987417 35.88948727 -278 9 C-277.08039807 8.0172368 -276.16113063 7.0341605 -275.2421875 6.05078125 C-217.68195511 -54.5441567 -117.12588571 -69.62740182 0 0 Z " fill="#EDEDED" transform="translate(390,67)"/>
<path d="M0 0 C2.73686767 2.60401002 5.38141747 5.27805237 8 8 C8.79277344 8.79148438 9.58554687 9.58296875 10.40234375 10.3984375 C24.55427304 24.57164788 35.80304103 40.21011086 45 58 C45.37753418 58.72380859 45.75506836 59.44761719 46.14404297 60.19335938 C69.85199628 106.19772328 72.84497193 160.39234131 57.75244141 209.67578125 C46.57866145 244.19050715 26.92982898 272.4426549 1.33984375 297.66796875 C-1.6889682 300.66516992 -4.5408692 303.7615806 -7.296875 307.01171875 C-14.92117955 315.91256971 -23.12050303 324.35184396 -31.14453125 332.890625 C-33.71167355 335.62353617 -36.27138435 338.36309437 -38.82421875 341.109375 C-39.44192139 341.77348389 -40.05962402 342.43759277 -40.69604492 343.12182617 C-41.85480861 344.36841063 -43.01260692 345.61589355 -44.16918945 346.86450195 C-46.96116565 349.86620406 -49.79389922 352.81065291 -52.703125 355.69921875 C-54.99290591 357.97348538 -57.18026733 360.27086965 -59.25 362.75 C-62.18279622 366.1583848 -65.30072901 369.34399164 -68.5 372.5 C-71.61580242 375.57389519 -74.65877297 378.66702214 -77.5 382 C-80.7823339 385.85043015 -84.35254849 389.38145579 -87.95092773 392.93139648 C-91.20000607 396.15366448 -94.22443863 399.49340645 -97.19140625 402.97265625 C-100.17238449 406.31418478 -103.39815768 409.408143 -106.58984375 412.546875 C-108.71065019 414.70549161 -110.6420224 416.915127 -112.5625 419.25 C-117.62354166 425.16254393 -123.6431008 429.40098571 -131.4453125 430.2734375 C-140.13355996 430.60272968 -146.04403388 428.46295533 -152.6015625 422.72265625 C-156.98721918 418.42312274 -161.03690263 413.86201445 -165.0234375 409.1953125 C-167.57961739 406.35623524 -170.28269828 403.68398614 -173 401 C-176.89896095 397.14878387 -180.60824302 393.23578266 -184.16015625 389.05859375 C-186.95766867 385.92846838 -189.96624506 383.01314342 -192.95336914 380.06616211 C-196.17998653 376.86614229 -199.17930461 373.54927728 -202.125 370.09375 C-204.93600311 366.95479653 -207.95267797 364.02649319 -210.95092773 361.06860352 C-214.20000607 357.84633552 -217.22443863 354.50659355 -220.19140625 351.02734375 C-223.1740589 347.6839383 -226.40356692 344.5892363 -229.58984375 341.44140625 C-232.26854532 338.72797273 -234.74608118 335.89222977 -237.22265625 332.99609375 C-239.94733093 329.93607449 -242.88878072 327.10293156 -245.8046875 324.2265625 C-248.44006743 321.55366826 -250.87766489 318.74631697 -253.3203125 315.8984375 C-254.98204576 314.02029247 -256.71125525 312.25694484 -258.5 310.5 C-260.79326036 308.24202057 -262.96428028 305.94003496 -265.0625 303.5 C-267.93268 300.16543132 -270.90845779 296.949052 -273.92602539 293.7487793 C-286.0183104 280.91195526 -296.61115741 267.97175606 -306 253 C-306.61488281 252.02836914 -306.61488281 252.02836914 -307.2421875 251.03710938 C-333.94960592 208.24250435 -340.84032003 153.45251313 -330.16064453 104.64599609 C-321.62086071 68.21402978 -303.96987417 35.88948727 -278 9 C-277.08039807 8.0172368 -276.16113063 7.0341605 -275.2421875 6.05078125 C-217.68195511 -54.5441567 -117.12588571 -69.62740182 0 0 Z M-238 27 C-238.52190918 27.44069824 -239.04381836 27.88139648 -239.58154297 28.33544922 C-267.4467434 52.17066824 -285.45862571 85.07787678 -292 121 C-292.33837891 122.75570312 -292.33837891 122.75570312 -292.68359375 124.546875 C-296.58321056 148.32109059 -294.77917454 174.18987805 -287 197 C-286.79004395 197.62148926 -286.58008789 198.24297852 -286.36376953 198.88330078 C-279.38487549 219.27261866 -269.20282342 237.73472038 -255 254 C-254.15695313 254.97710937 -253.31390625 255.95421875 -252.4453125 256.9609375 C-229.12203809 283.50858831 -196.67172917 300.86178263 -162 307 C-160.83210937 307.22429687 -159.66421875 307.44859375 -158.4609375 307.6796875 C-117.6108658 314.41118916 -74.74783816 303.59533 -41 280 C-36.44735302 276.57521333 -32.22120326 272.82027487 -28 269 C-27.14277344 268.27425781 -26.28554688 267.54851562 -25.40234375 266.80078125 C3.66527859 241.87909553 22.29283452 202.56095895 25.8059082 164.73364258 C29.01002844 119.60592645 16.1054695 77.72272661 -13.39990234 43.37011719 C-40.90383173 11.84616027 -79.27889793 -7.42159502 -121 -11 C-164.28117257 -13.42791928 -204.80249069 -1.0826338 -238 27 Z " fill="#F44336" transform="translate(390,67)"/>
<path d="M0 0 C1.02183884 -0.00708481 2.04367767 -0.01416962 3.09648132 -0.02146912 C4.20672668 -0.0189917 5.31697205 -0.01651428 6.46086121 -0.01396179 C7.63867661 -0.01907272 8.816492 -0.02418365 10.02999878 -0.02944946 C13.25332575 -0.04095563 16.47649298 -0.04342079 19.69983506 -0.04088616 C22.39592256 -0.03981434 25.09198651 -0.04470543 27.78806895 -0.04949158 C34.15297605 -0.06057888 40.51782413 -0.06102913 46.88273621 -0.05497742 C53.43507472 -0.04894293 59.98719822 -0.06123692 66.53950006 -0.08254749 C72.17621117 -0.10020186 77.81285409 -0.10615866 83.44959182 -0.10290974 C86.81113799 -0.10110221 90.17253091 -0.10367936 93.5340519 -0.11762428 C97.28716627 -0.12998324 101.03978579 -0.12319919 104.79289246 -0.11161804 C106.44915146 -0.12308365 106.44915146 -0.12308365 108.13887024 -0.13478088 C117.46640698 -0.07127863 124.11643562 1.825266 131.05534363 8.29975891 C135.60907923 13.35722633 136.90795773 17.53449318 136.82096863 24.26069641 C137.72750183 24.23451233 138.63403503 24.20832825 139.56803894 24.18135071 C142.99008121 24.09521085 146.41094232 24.03301232 149.83366394 23.98603821 C151.30390303 23.96117057 152.7740222 23.92726279 154.24382019 23.88349915 C165.69665641 23.55147627 175.30772942 24.9457991 184.75846863 32.01069641 C191.17110714 38.062722 193.91874898 45.67314005 194.30143738 54.29975891 C194.432075 65.47295126 190.98267447 76.27002287 188.11418152 86.9691925 C187.13160683 90.64265694 186.182389 94.32360491 185.23698425 98.00679016 C184.61718927 100.37058352 183.99550942 102.73388363 183.37174988 105.09663391 C183.09132339 106.18431061 182.81089691 107.2719873 182.52197266 108.3926239 C179.92965185 117.95038745 176.5114529 126.78952781 167.82096863 132.26069641 C161.86639844 135.08843751 156.12692912 137.39498349 149.49674988 137.35835266 C148.46872253 137.35513 147.44069519 137.35190735 146.3815155 137.34858704 C145.30966003 137.34020813 144.23780457 137.33182922 143.13346863 137.32319641 C142.0500116 137.31868469 140.96655457 137.31417297 139.8502655 137.30952454 C137.17377778 137.29773384 134.49740086 137.28127704 131.82096863 137.26069641 C131.55542175 138.16046204 131.28987488 139.06022766 131.01628113 139.98725891 C129.88714306 143.07947363 128.72233695 145.08071027 126.69596863 147.63569641 C126.1571405 148.32405579 125.61831238 149.01241516 125.06315613 149.72163391 C124.65323425 150.22952454 124.24331238 150.73741516 123.82096863 151.26069641 C124.81096863 151.2748761 125.80096863 151.28905579 126.82096863 151.30366516 C141.10357782 151.72682679 141.10357782 151.72682679 146.82096863 157.26069641 C151.33585981 162.44656638 153.1980445 166.98018678 153.09831238 173.78413391 C152.46901145 179.40352525 150.17566353 184.40260178 145.94596863 188.19819641 C140.72624319 191.6432152 136.20314096 192.51038967 130.00312805 192.53485107 C129.34211055 192.54008775 128.68109304 192.54532443 128.0000447 192.5507198 C125.79852607 192.56564875 123.59724131 192.56642336 121.39567566 192.5670929 C119.81172802 192.57471908 118.22778407 192.58314737 116.6438446 192.59231567 C112.35040404 192.61421999 108.05703468 192.62305388 103.76354456 192.62814212 C101.07893058 192.63178996 98.39433514 192.63803219 95.70972824 192.64514351 C86.33778314 192.66962213 76.96589328 192.68268684 67.59391785 192.68623352 C58.86761087 192.68986941 50.14165546 192.71977262 41.41545594 192.7616381 C33.91462285 192.79635902 26.41390621 192.81178226 18.91299331 192.81247956 C14.43690062 192.81327164 9.96116643 192.82197888 5.48515701 192.85047722 C1.27426905 192.87668954 -2.93596392 192.87884577 -7.14689636 192.86282158 C-8.68838558 192.86100969 -10.22991275 192.86767439 -11.77132034 192.88364029 C-26.93919701 193.03111742 -26.93919701 193.03111742 -33.17903137 187.26069641 C-38.50909608 181.50983712 -39.69405685 177.0514742 -39.56184387 169.30757141 C-38.82173443 163.41690443 -35.86579908 159.8240421 -31.61653137 155.88569641 C-26.85480526 152.71121234 -23.14567225 151.89505252 -17.42903137 151.63569641 C-16.73164856 151.59702454 -16.03426575 151.55835266 -15.31575012 151.51850891 C-13.60392319 151.42471018 -11.89151455 151.34163467 -10.17903137 151.26069641 C-10.55414856 150.82241516 -10.92926575 150.38413391 -11.31575012 149.93257141 C-19.8221047 139.39069117 -23.48224212 127.20459957 -23.46955872 113.86250305 C-23.47627594 112.84045273 -23.48299316 111.8184024 -23.48991394 110.76538086 C-23.50884886 107.40048814 -23.51281559 104.03579528 -23.51496887 100.67085266 C-23.52139887 98.32347533 -23.52812738 95.9760988 -23.53514099 93.62872314 C-23.54710173 88.71379233 -23.55082294 83.79893176 -23.54963684 78.88398743 C-23.54943348 72.59484354 -23.57675899 66.30615065 -23.61118126 60.01711369 C-23.63344532 55.17086732 -23.63747456 50.32472969 -23.63641739 45.47843742 C-23.63877318 43.16005839 -23.64759541 40.84167636 -23.66308212 38.52334785 C-23.68273557 35.27800705 -23.67690637 32.0336417 -23.66487122 28.7882843 C-23.67611023 27.83686554 -23.68734924 26.88544678 -23.69892883 25.90519714 C-23.63016255 18.58687132 -21.88322998 13.3083621 -16.99543762 7.79975891 C-16.25164856 7.16811829 -15.5078595 6.53647766 -14.74153137 5.88569641 C-14.00032043 5.23858704 -13.2591095 4.59147766 -12.49543762 3.92475891 C-8.46836823 1.03178832 -4.93027961 0.01144067 0 0 Z " fill="#795548" transform="translate(183.1790313720703,119.73930358886719)"/>
<path d="M0 0 C1.02183884 -0.00708481 2.04367767 -0.01416962 3.09648132 -0.02146912 C4.20672668 -0.0189917 5.31697205 -0.01651428 6.46086121 -0.01396179 C7.63867661 -0.01907272 8.816492 -0.02418365 10.02999878 -0.02944946 C13.25332575 -0.04095563 16.47649298 -0.04342079 19.69983506 -0.04088616 C22.39592256 -0.03981434 25.09198651 -0.04470543 27.78806895 -0.04949158 C34.15297605 -0.06057888 40.51782413 -0.06102913 46.88273621 -0.05497742 C53.43507472 -0.04894293 59.98719822 -0.06123692 66.53950006 -0.08254749 C72.17621117 -0.10020186 77.81285409 -0.10615866 83.44959182 -0.10290974 C86.81113799 -0.10110221 90.17253091 -0.10367936 93.5340519 -0.11762428 C97.28716627 -0.12998324 101.03978579 -0.12319919 104.79289246 -0.11161804 C106.44915146 -0.12308365 106.44915146 -0.12308365 108.13887024 -0.13478088 C117.46640698 -0.07127863 124.11643562 1.825266 131.05534363 8.29975891 C135.60907923 13.35722633 136.90795773 17.53449318 136.82096863 24.26069641 C137.72750183 24.23451233 138.63403503 24.20832825 139.56803894 24.18135071 C142.99008121 24.09521085 146.41094232 24.03301232 149.83366394 23.98603821 C151.30390303 23.96117057 152.7740222 23.92726279 154.24382019 23.88349915 C165.69665641 23.55147627 175.30772942 24.9457991 184.75846863 32.01069641 C191.17110714 38.062722 193.91874898 45.67314005 194.30143738 54.29975891 C194.432075 65.47295126 190.98267447 76.27002287 188.11418152 86.9691925 C187.13160683 90.64265694 186.182389 94.32360491 185.23698425 98.00679016 C184.61718927 100.37058352 183.99550942 102.73388363 183.37174988 105.09663391 C183.09132339 106.18431061 182.81089691 107.2719873 182.52197266 108.3926239 C179.92965185 117.95038745 176.5114529 126.78952781 167.82096863 132.26069641 C161.9645081 135.04184661 156.24035246 137.39606857 149.71549988 137.35835266 C148.73258972 137.35513 147.74967957 137.35190735 146.73698425 137.34858704 C145.7128241 137.34020813 144.68866394 137.33182922 143.63346863 137.32319641 C142.07982605 137.31642883 142.07982605 137.31642883 140.49479675 137.30952454 C137.93679597 137.29773651 135.3789113 137.28128156 132.82096863 137.26069641 C133.13224379 135.67712182 133.44504152 134.09384648 133.75846863 132.51069641 C133.93249207 131.62897766 134.1065155 130.74725891 134.28581238 129.83882141 C134.6001991 128.32425762 134.94699108 126.81469288 135.36759949 125.3261261 C135.98101227 122.53157997 136.04298635 119.82244543 136.13737488 116.96382141 C136.17926941 115.75854797 136.22116394 114.55327454 136.264328 113.31147766 C136.30364441 112.05721985 136.34296082 110.80296204 136.38346863 109.51069641 C136.44824402 107.60610657 136.44824402 107.60610657 136.514328 105.66304016 C136.62036585 102.52903276 136.72242921 99.39494708 136.82096863 96.26069641 C139.79096863 96.26069641 142.76096863 96.26069641 145.82096863 96.26069641 C148.29596863 80.42069641 148.29596863 80.42069641 150.82096863 64.26069641 C146.20096863 64.26069641 141.58096863 64.26069641 136.82096863 64.26069641 C136.82096863 58.98069641 136.82096863 53.70069641 136.82096863 48.26069641 C84.02096863 48.26069641 31.22096863 48.26069641 -23.17903137 48.26069641 C-23.17903137 14.7687465 -23.17903137 14.7687465 -16.99543762 7.79975891 C-15.87975403 6.85229797 -15.87975403 6.85229797 -14.74153137 5.88569641 C-14.00032043 5.23858704 -13.2591095 4.59147766 -12.49543762 3.92475891 C-8.46836823 1.03178832 -4.93027961 0.01144067 0 0 Z " fill="#5D4037" transform="translate(183.1790313720703,119.73930358886719)"/>
<path d="M0 0 C0.66747576 -0.00523668 1.33495152 -0.01047336 2.02265382 -0.01586872 C4.25802216 -0.03086368 6.49316149 -0.03157376 8.72857666 -0.03224182 C10.33193345 -0.03986376 11.93528659 -0.04829132 13.53863525 -0.0574646 C17.89417558 -0.07941562 22.2496457 -0.08820954 26.6052351 -0.09329104 C29.32769541 -0.09693451 32.05013733 -0.10317458 34.77259064 -0.11029243 C44.27420357 -0.13479096 53.77576189 -0.14783928 63.27740479 -0.15138245 C72.12750022 -0.15501598 80.97724848 -0.18489721 89.82723784 -0.22678703 C97.42994044 -0.26150853 105.03252812 -0.27693122 112.63530946 -0.27762848 C117.17402814 -0.27842079 121.71239335 -0.28713788 126.25102997 -0.31562614 C130.52262595 -0.34183814 134.79357624 -0.34399481 139.06521606 -0.3279705 C140.62927918 -0.32615837 142.19337967 -0.33282557 143.75736237 -0.34878922 C159.36700026 -0.49834855 159.36700026 -0.49834855 165.34674072 5.27415466 C169.86040497 10.46351499 171.72384372 14.99179457 171.62408447 21.79759216 C170.99478355 27.41698351 168.70143562 32.41606003 164.47174072 36.21165466 C159.25201528 39.65667345 154.72891305 40.52384792 148.52890015 40.54830933 C147.53737389 40.55616434 147.53737389 40.55616434 146.5258168 40.56417805 C144.32429817 40.579107 142.12301341 40.57988161 139.92144775 40.58055115 C138.33750011 40.58817733 136.75355616 40.59660562 135.1696167 40.60577393 C130.87617614 40.62767824 126.58280678 40.63651213 122.28931665 40.64160037 C119.60470268 40.64524821 116.92010723 40.65149044 114.23550034 40.65860176 C104.86355523 40.68308038 95.49166537 40.6961451 86.11968994 40.69969177 C77.39338296 40.70332766 68.66742755 40.73323087 59.94122803 40.77509636 C52.44039494 40.80981727 44.9396783 40.82524051 37.43876541 40.82593781 C32.96267271 40.82672989 28.48693852 40.83543714 24.01092911 40.86393547 C19.80004115 40.89014779 15.58980818 40.89230402 11.37887573 40.87627983 C9.83738652 40.87446794 8.29585935 40.88113265 6.75445175 40.89709854 C-8.41342492 41.04457567 -8.41342492 41.04457567 -14.65325928 35.27415466 C-19.98332399 29.52329537 -21.16828475 25.06493245 -21.03607178 17.32102966 C-20.29596234 11.43036268 -17.34002699 7.83750035 -13.09075928 3.89915466 C-8.48949111 0.83164255 -5.62076526 0.02186822 0 0 Z " fill="#424242" transform="translate(164.65325927734375,271.72584533691406)"/>
<path d="M0 0 C5.0325 -0.103125 10.065 -0.20625 15.25 -0.3125 C17.59206543 -0.38078003 17.59206543 -0.38078003 19.98144531 -0.45043945 C31.04903516 -0.55931711 41.20027587 1.39164178 49.53515625 9.2578125 C56.36873047 17.38521011 57.96936468 26.04260747 57.30072021 36.41271973 C56.26484192 45.32501543 53.61106661 54.06315144 51.29321289 62.70849609 C50.3106382 66.38196053 49.36142037 70.0629085 48.41601562 73.74609375 C47.79622064 76.10988711 47.17454079 78.47318722 46.55078125 80.8359375 C46.27035477 81.9236142 45.98992828 83.01129089 45.70100403 84.13192749 C43.10868323 93.68969104 39.69048428 102.5288314 31 108 C25.14353948 110.7811502 19.41938383 113.13537216 12.89453125 113.09765625 C11.91162109 113.09443359 10.92871094 113.09121094 9.91601562 113.08789062 C8.89185547 113.07951172 7.86769531 113.07113281 6.8125 113.0625 C5.77673828 113.05798828 4.74097656 113.05347656 3.67382812 113.04882812 C1.11582734 113.0370401 -1.44205733 113.02058515 -4 113 C-3.68872484 111.41642541 -3.37592711 109.83315007 -3.0625 108.25 C-2.88847656 107.36828125 -2.71445312 106.4865625 -2.53515625 105.578125 C-2.22076952 104.06356121 -1.87397755 102.55399646 -1.45336914 101.06542969 C-0.83995636 98.27088356 -0.77798228 95.56174902 -0.68359375 92.703125 C-0.64169922 91.49785156 -0.59980469 90.29257813 -0.55664062 89.05078125 C-0.49766602 87.16939453 -0.49766602 87.16939453 -0.4375 85.25 C-0.39431641 83.98027344 -0.35113281 82.71054688 -0.30664062 81.40234375 C-0.20060278 78.26833635 -0.09853942 75.13425067 0 72 C2.97 72 5.94 72 9 72 C10.65 61.44 12.3 50.88 14 40 C9.38 40 4.76 40 0 40 C0 26.8 0 13.6 0 0 Z " fill="#424242" transform="translate(320,144)"/>
<path d="M0 0 C4.62 0 9.24 0 14 0 C13.53267582 7.29025723 12.69628749 14.42422797 11.5 21.625 C11.36940186 22.41890137 11.23880371 23.21280273 11.10424805 24.03076172 C10.12949232 29.74101537 10.12949232 29.74101537 9 32 C6.03 32 3.06 32 0 32 C0 21.44 0 10.88 0 0 Z " fill="#ECECEC" transform="translate(320,184)"/>
</svg>
