<?xml version="1.0" encoding="UTF-8"?>
<svg version="1.1" xmlns="http://www.w3.org/2000/svg" width="512" height="512">
<path d="M0 0 C2.73686767 2.60401002 5.38141747 5.27805237 8 8 C8.79277344 8.79148438 9.58554687 9.58296875 10.40234375 10.3984375 C24.55427304 24.57164788 35.80304103 40.21011086 45 58 C45.37753418 58.72380859 45.75506836 59.44761719 46.14404297 60.19335938 C69.85199628 106.19772328 72.84497193 160.39234131 57.75244141 209.67578125 C46.57866145 244.19050715 26.92982898 272.4426549 1.33984375 297.66796875 C-1.6889682 300.66516992 -4.5408692 303.7615806 -7.296875 307.01171875 C-14.92117955 315.91256971 -23.12050303 324.35184396 -31.14453125 332.890625 C-33.71167355 335.62353617 -36.27138435 338.36309437 -38.82421875 341.109375 C-39.44192139 341.77348389 -40.05962402 342.43759277 -40.69604492 343.12182617 C-41.85480861 344.36841063 -43.01260692 345.61589355 -44.16918945 346.86450195 C-46.96116565 349.86620406 -49.79389922 352.81065291 -52.703125 355.69921875 C-54.99290591 357.97348538 -57.18026733 360.27086965 -59.25 362.75 C-62.18279622 366.1583848 -65.30072901 369.34399164 -68.5 372.5 C-71.61580242 375.57389519 -74.65877297 378.66702214 -77.5 382 C-80.7823339 385.85043015 -84.35254849 389.38145579 -87.95092773 392.93139648 C-91.20000607 396.15366448 -94.22443863 399.49340645 -97.19140625 402.97265625 C-100.17238449 406.31418478 -103.39815768 409.408143 -106.58984375 412.546875 C-108.71065019 414.70549161 -110.6420224 416.915127 -112.5625 419.25 C-117.62354166 425.16254393 -123.6431008 429.40098571 -131.4453125 430.2734375 C-140.13355996 430.60272968 -146.04403388 428.46295533 -152.6015625 422.72265625 C-156.98721918 418.42312274 -161.03690263 413.86201445 -165.0234375 409.1953125 C-167.57961739 406.35623524 -170.28269828 403.68398614 -173 401 C-176.89896095 397.14878387 -180.60824302 393.23578266 -184.16015625 389.05859375 C-186.95766867 385.92846838 -189.96624506 383.01314342 -192.95336914 380.06616211 C-196.17998653 376.86614229 -199.17930461 373.54927728 -202.125 370.09375 C-204.93600311 366.95479653 -207.95267797 364.02649319 -210.95092773 361.06860352 C-214.20000607 357.84633552 -217.22443863 354.50659355 -220.19140625 351.02734375 C-223.1740589 347.6839383 -226.40356692 344.5892363 -229.58984375 341.44140625 C-232.26854532 338.72797273 -234.74608118 335.89222977 -237.22265625 332.99609375 C-239.94733093 329.93607449 -242.88878072 327.10293156 -245.8046875 324.2265625 C-248.44006743 321.55366826 -250.87766489 318.74631697 -253.3203125 315.8984375 C-254.98204576 314.02029247 -256.71125525 312.25694484 -258.5 310.5 C-260.79326036 308.24202057 -262.96428028 305.94003496 -265.0625 303.5 C-267.93268 300.16543132 -270.90845779 296.949052 -273.92602539 293.7487793 C-286.0183104 280.91195526 -296.61115741 267.97175606 -306 253 C-306.61488281 252.02836914 -306.61488281 252.02836914 -307.2421875 251.03710938 C-333.94960592 208.24250435 -340.84032003 153.45251313 -330.16064453 104.64599609 C-321.62086071 68.21402978 -303.96987417 35.88948727 -278 9 C-277.08039807 8.0172368 -276.16113063 7.0341605 -275.2421875 6.05078125 C-217.68195511 -54.5441567 -117.12588571 -69.62740182 0 0 Z " fill="#EDEDED" transform="translate(390,67)"/>
<path d="M0 0 C2.73686767 2.60401002 5.38141747 5.27805237 8 8 C8.79277344 8.79148438 9.58554687 9.58296875 10.40234375 10.3984375 C24.55427304 24.57164788 35.80304103 40.21011086 45 58 C45.37753418 58.72380859 45.75506836 59.44761719 46.14404297 60.19335938 C69.85199628 106.19772328 72.84497193 160.39234131 57.75244141 209.67578125 C46.57866145 244.19050715 26.92982898 272.4426549 1.33984375 297.66796875 C-1.6889682 300.66516992 -4.5408692 303.7615806 -7.296875 307.01171875 C-14.92117955 315.91256971 -23.12050303 324.35184396 -31.14453125 332.890625 C-33.71167355 335.62353617 -36.27138435 338.36309437 -38.82421875 341.109375 C-39.44192139 341.77348389 -40.05962402 342.43759277 -40.69604492 343.12182617 C-41.85480861 344.36841063 -43.01260692 345.61589355 -44.16918945 346.86450195 C-46.96116565 349.86620406 -49.79389922 352.81065291 -52.703125 355.69921875 C-54.99290591 357.97348538 -57.18026733 360.27086965 -59.25 362.75 C-62.18279622 366.1583848 -65.30072901 369.34399164 -68.5 372.5 C-71.61580242 375.57389519 -74.65877297 378.66702214 -77.5 382 C-80.7823339 385.85043015 -84.35254849 389.38145579 -87.95092773 392.93139648 C-91.20000607 396.15366448 -94.22443863 399.49340645 -97.19140625 402.97265625 C-100.17238449 406.31418478 -103.39815768 409.408143 -106.58984375 412.546875 C-108.71065019 414.70549161 -110.6420224 416.915127 -112.5625 419.25 C-117.62354166 425.16254393 -123.6431008 429.40098571 -131.4453125 430.2734375 C-140.13355996 430.60272968 -146.04403388 428.46295533 -152.6015625 422.72265625 C-156.98721918 418.42312274 -161.03690263 413.86201445 -165.0234375 409.1953125 C-167.57961739 406.35623524 -170.28269828 403.68398614 -173 401 C-176.89896095 397.14878387 -180.60824302 393.23578266 -184.16015625 389.05859375 C-186.95766867 385.92846838 -189.96624506 383.01314342 -192.95336914 380.06616211 C-196.17998653 376.86614229 -199.17930461 373.54927728 -202.125 370.09375 C-204.93600311 366.95479653 -207.95267797 364.02649319 -210.95092773 361.06860352 C-214.20000607 357.84633552 -217.22443863 354.50659355 -220.19140625 351.02734375 C-223.1740589 347.6839383 -226.40356692 344.5892363 -229.58984375 341.44140625 C-232.26854532 338.72797273 -234.74608118 335.89222977 -237.22265625 332.99609375 C-239.94733093 329.93607449 -242.88878072 327.10293156 -245.8046875 324.2265625 C-248.44006743 321.55366826 -250.87766489 318.74631697 -253.3203125 315.8984375 C-254.98204576 314.02029247 -256.71125525 312.25694484 -258.5 310.5 C-260.79326036 308.24202057 -262.96428028 305.94003496 -265.0625 303.5 C-267.93268 300.16543132 -270.90845779 296.949052 -273.92602539 293.7487793 C-286.0183104 280.91195526 -296.61115741 267.97175606 -306 253 C-306.61488281 252.02836914 -306.61488281 252.02836914 -307.2421875 251.03710938 C-333.94960592 208.24250435 -340.84032003 153.45251313 -330.16064453 104.64599609 C-321.62086071 68.21402978 -303.96987417 35.88948727 -278 9 C-277.08039807 8.0172368 -276.16113063 7.0341605 -275.2421875 6.05078125 C-217.68195511 -54.5441567 -117.12588571 -69.62740182 0 0 Z M-238 27 C-238.52190918 27.44069824 -239.04381836 27.88139648 -239.58154297 28.33544922 C-267.4467434 52.17066824 -285.45862571 85.07787678 -292 121 C-292.33837891 122.75570312 -292.33837891 122.75570312 -292.68359375 124.546875 C-296.58321056 148.32109059 -294.77917454 174.18987805 -287 197 C-286.79004395 197.62148926 -286.58008789 198.24297852 -286.36376953 198.88330078 C-279.38487549 219.27261866 -269.20282342 237.73472038 -255 254 C-254.15695313 254.97710937 -253.31390625 255.95421875 -252.4453125 256.9609375 C-229.12203809 283.50858831 -196.67172917 300.86178263 -162 307 C-160.83210937 307.22429687 -159.66421875 307.44859375 -158.4609375 307.6796875 C-117.6108658 314.41118916 -74.74783816 303.59533 -41 280 C-36.44735302 276.57521333 -32.22120326 272.82027487 -28 269 C-27.14277344 268.27425781 -26.28554688 267.54851562 -25.40234375 266.80078125 C3.66527859 241.87909553 22.29283452 202.56095895 25.8059082 164.73364258 C29.01833387 119.48895045 16.02077752 77.77742012 -13.44970703 43.30419922 C-40.73493841 11.85913316 -79.5205446 -7.44232098 -121 -11 C-164.28117257 -13.42791928 -204.80249069 -1.0826338 -238 27 Z " fill="#F44336" transform="translate(390,67)"/>
<path d="M0 0 C4.38391313 1.98899762 7.31885556 4.10470015 9.921875 8.26953125 C10.90857862 11.34660668 11.05163484 14.16581062 11.06231689 17.38645935 C11.06802704 18.41967316 11.07373718 19.45288696 11.07962036 20.51741028 C11.08073822 21.64531479 11.08185608 22.7732193 11.08300781 23.93530273 C11.09045517 25.72366547 11.09045517 25.72366547 11.09805298 27.54815674 C11.11014779 30.81468615 11.11761574 34.0811798 11.12206364 37.34772754 C11.12499824 39.3893993 11.1291037 41.4310655 11.13356781 43.47273445 C11.1472329 49.8634105 11.15690525 56.25407377 11.1607697 62.64476341 C11.16525276 70.01728997 11.1828161 77.38963134 11.2117703 84.76210159 C11.23338902 90.46497713 11.24347402 96.16780055 11.24481082 101.87071663 C11.24585842 105.27523143 11.25175675 108.67957191 11.26963043 112.0840435 C11.28664645 115.88096112 11.28482148 119.67742517 11.27832031 123.47436523 C11.29214249 125.16318565 11.29214249 125.16318565 11.3062439 126.88612366 C11.30067474 127.92215729 11.29510559 128.95819092 11.28936768 130.02561951 C11.29083424 130.92285956 11.2923008 131.82009962 11.2938118 132.74452877 C10.83461459 135.86192421 9.78799476 137.74767613 7.921875 140.26953125 C5.234375 141.08203125 5.234375 141.08203125 2.921875 141.26953125 C2.93075745 142.15156723 2.93963989 143.03360321 2.9487915 143.94236755 C3.02917564 152.2835639 3.08996002 160.62462882 3.12912369 168.96612453 C3.14993558 173.25387124 3.17813492 177.54129597 3.22363281 181.82885742 C3.2673207 185.97211401 3.29106015 190.11506229 3.30138397 194.25853157 C3.30873443 195.83368846 3.32308767 197.40882983 3.34479523 198.98385429 C3.58257906 216.96325181 3.58257906 216.96325181 -2.45501709 223.83714294 C-7.53067706 228.47838887 -13.09054355 229.76204186 -19.7734375 229.58203125 C-25.10698194 228.85883878 -29.37317796 226.37225018 -32.953125 222.39453125 C-36.60744658 217.02052892 -37.32774624 212.41158448 -37.30517578 205.97900391 C-37.30546783 205.27587067 -37.30575989 204.57273743 -37.30606079 203.84829712 C-37.30467662 201.54326683 -37.28915897 199.23856699 -37.2734375 196.93359375 C-37.26970412 195.32791317 -37.26685868 193.72223031 -37.26486206 192.11654663 C-37.25725121 187.90465936 -37.23762479 183.69291154 -37.2154541 179.4810791 C-37.1949406 175.17750942 -37.1858486 170.87391705 -37.17578125 166.5703125 C-37.15437634 158.13665499 -37.12027139 149.7031105 -37.078125 141.26953125 C-37.84125 141.20765625 -38.604375 141.14578125 -39.390625 141.08203125 C-42.078125 140.26953125 -42.078125 140.26953125 -43.86437988 138.16543579 C-45.36587558 134.58298002 -45.47287428 131.82040113 -45.49804688 127.93505859 C-45.50651642 127.21382309 -45.51498596 126.49258759 -45.52371216 125.74949646 C-45.54707453 123.36797313 -45.5481031 120.98709804 -45.546875 118.60546875 C-45.553987 116.93177031 -45.5616875 115.25807428 -45.56994629 113.5843811 C-45.5833966 110.06888076 -45.58496188 106.55360481 -45.57910156 103.03808594 C-45.57326427 98.58815706 -45.60354259 94.13934162 -45.64421844 89.68962669 C-45.67042854 86.22486842 -45.67294213 82.76036448 -45.66932678 79.29552078 C-45.67099329 77.65887323 -45.68039038 76.0222106 -45.69847107 74.38566208 C-45.95869559 47.87599855 -36.28026187 24.82090252 -18.2734375 5.41015625 C-12.97207161 0.24085286 -7.47583594 -2.62778444 0 0 Z " fill="#616161" transform="translate(317.078125,106.73046875)"/>
<path d="M0 0 C10.60643683 6.13343472 16.58049095 16.05407336 19.86328125 27.76953125 C23.76769704 44.80903368 19.60273985 60.31650664 10.6875 74.9375 C10.3575 75.2675 10.0275 75.5975 9.6875 75.9375 C9.58768656 77.70145583 9.55840829 79.46942989 9.55619812 81.23620605 C9.55218994 82.38572754 9.54818176 83.53524902 9.54405212 84.71960449 C9.5448452 86.62860535 9.5448452 86.62860535 9.5456543 88.57617188 C9.54262423 89.9213065 9.5391032 91.2664401 9.53512573 92.61157227 C9.52722131 95.51610937 9.52208588 98.4206341 9.51883507 101.32518005 C9.51293163 105.92324592 9.4963951 110.52123409 9.47749329 115.1192627 C9.47115519 116.69313807 9.46482957 118.2670135 9.45851612 119.84088898 C9.45535031 120.62933984 9.4521845 121.4177907 9.44892275 122.23013401 C9.40685718 132.93791378 9.373902 143.64565881 9.36157227 154.35351562 C9.35317639 161.57071459 9.33062421 168.78772262 9.2922166 176.00482607 C9.27249695 179.82311352 9.26003739 183.6411158 9.26505089 187.4594574 C9.26971761 191.05799569 9.25578282 194.65599526 9.22803879 198.25442505 C9.2178973 200.19331509 9.2273468 202.13227719 9.23753357 204.07116699 C9.15657866 211.68171291 8.4945 218.56953132 3.31115246 224.51665497 C-1.78532897 229.13599162 -7.31870242 230.43017805 -14.0078125 230.25 C-19.34135694 229.52680753 -23.60755296 227.04021893 -27.1875 223.0625 C-30.49508352 218.19840658 -31.56382076 213.88437151 -31.55059814 208.04425049 C-31.55309067 206.88930084 -31.55558319 205.7343512 -31.55815125 204.54440308 C-31.55088516 203.29128326 -31.54361908 202.03816345 -31.53613281 200.74707031 C-31.53560808 199.4028219 -31.53604545 198.05857282 -31.53736877 196.71432495 C-31.53869912 193.82676229 -31.53431081 190.93928494 -31.52576447 188.05173492 C-31.5133425 183.47818248 -31.52035328 178.9047869 -31.53118896 174.33123779 C-31.55960091 161.32820427 -31.57212718 148.32530595 -31.54248047 135.32226562 C-31.52625659 128.13502095 -31.53149825 120.94811981 -31.56027675 113.76091075 C-31.57452322 109.96317371 -31.57769469 106.16615184 -31.55405426 102.36844635 C-31.53179747 98.79265393 -31.53757429 95.21796906 -31.56403923 91.64221573 C-31.57102216 89.7190156 -31.54846425 87.79577759 -31.5247345 85.87271118 C-31.62279743 77.56851995 -33.52885595 72.65099544 -38.3125 65.9375 C-39.73828125 62.9140625 -39.73828125 62.9140625 -40.625 60.5625 C-40.93050781 59.77101562 -41.23601562 58.97953125 -41.55078125 58.1640625 C-46.16993417 44.6619232 -43.97401094 28.84143965 -38.02734375 16.20703125 C-33.94276958 8.68640861 -28.29341512 3.34107139 -21 -1.0625 C-13.7391857 -3.03153439 -6.91719362 -3.19498425 0 0 Z " fill="#616161" transform="translate(223.3125,106.0625)"/>
<path d="M0 0 C13.2 0 26.4 0 40 0 C40.16043524 17.6077673 40.16043524 17.6077673 40.1953125 25.15429688 C40.21915847 30.28947631 40.24726769 35.42436854 40.30175781 40.55932617 C40.3454457 44.70258276 40.36918515 48.84553104 40.37950897 52.98900032 C40.38685943 54.56415721 40.40121267 56.13929858 40.42292023 57.71432304 C40.66070406 75.69372056 40.66070406 75.69372056 34.62310791 82.56761169 C29.54744794 87.20885762 23.98758145 88.49251061 17.3046875 88.3125 C11.97114306 87.58930753 7.70494704 85.10271893 4.125 81.125 C0.47067842 75.75099767 -0.24962124 71.14205323 -0.22705078 64.70947266 C-0.22734283 64.00633942 -0.22763489 63.30320618 -0.22793579 62.57876587 C-0.22655162 60.27373558 -0.21103397 57.96903574 -0.1953125 55.6640625 C-0.19157912 54.05838192 -0.18873368 52.45269906 -0.18673706 50.84701538 C-0.17912621 46.63512811 -0.15949979 42.42338029 -0.1373291 38.21154785 C-0.11320453 33.15040468 -0.10407755 28.0892147 -0.09242249 23.0280304 C-0.07307376 15.35192348 -0.03473358 7.67612214 0 0 Z " fill="#2196F2" transform="translate(280,248)"/>
</svg>
